<svg width="58" height="56" viewBox="0 0 58 56" fill="none" xmlns="http://www.w3.org/2000/svg">
<rect x="9" y="15" width="40" height="27" fill="#D9D9D9"/>
<path d="M37.9117 0H20.1202C3.8628 0 0 3.7324 0 19.3956V36.5764C0 52.2676 3.8367 56 20.0883 56H37.8827C54.1343 56 58 52.2956 58 36.6044V19.4264C58 3.7296 54.1633 0 37.9117 0ZM46.8234 39.956H42.5923C40.9915 39.956 40.5101 38.7044 37.6391 35.9324C35.1335 33.6 34.075 33.3088 33.4399 33.3088C32.5641 33.3088 32.3234 33.5412 32.3234 34.7088V38.3824C32.3234 39.3764 31.9899 39.9588 29.3016 39.9588C26.6926 39.7895 24.1626 39.0242 21.9199 37.7259C19.6773 36.4276 17.7862 34.6334 16.4024 32.4912C13.1172 28.5432 10.8313 23.9096 9.7266 18.9588C9.7266 18.3456 9.9673 17.7912 11.1766 17.7912H15.4077C16.4952 17.7912 16.8867 18.2588 17.3101 19.3368C19.3633 25.172 22.8665 30.2456 24.2875 30.2456C24.8327 30.2456 25.0705 30.0132 25.0705 28.7V22.6912C24.8907 19.95 23.3827 19.7176 23.3827 18.7264C23.4021 18.465 23.5262 18.2211 23.7286 18.0465C23.9311 17.8719 24.1961 17.7803 24.4673 17.7912H31.1141C32.0218 17.7912 32.3234 18.228 32.3234 19.278V27.3868C32.3234 28.2632 32.7149 28.5544 32.9875 28.5544C33.5327 28.5544 33.9532 28.2632 34.9508 27.3C37.0935 24.7771 38.8441 21.9662 40.1476 18.956C40.2808 18.5944 40.5329 18.2849 40.8654 18.0745C41.1979 17.8642 41.5926 17.7647 41.9891 17.7912H46.2202C47.4875 17.7912 47.7572 18.4044 47.4875 19.278C45.949 22.6056 44.0454 25.7643 41.8093 28.7C41.354 29.372 41.1713 29.722 41.8093 30.5088C42.2298 31.122 43.7117 32.3176 44.7093 33.4544C46.159 34.8506 47.3629 36.466 48.2734 38.2368C48.6359 39.3736 48.0298 39.956 46.8234 39.956Z" fill="#0059AB"/>
</svg>
