<svg width="36" height="35" viewBox="0 0 36 35" fill="none" xmlns="http://www.w3.org/2000/svg">
<rect x="6" y="9" width="25" height="17" fill="#0367C4"/>
<path d="M23.5314 0H12.4884C2.3976 0 0 2.31666 0 12.0386V22.7026C0 32.442 2.3814 34.7586 12.4686 34.7586H23.5134C33.6006 34.7586 36 32.4593 36 22.72V12.0578C36 2.31492 33.6186 0 23.5314 0ZM29.0628 24.8003H26.4366C25.443 24.8003 25.1442 24.0234 23.3622 22.3029C21.807 20.8552 21.15 20.6744 20.7558 20.6744C20.2122 20.6744 20.0628 20.8187 20.0628 21.5434V23.8236C20.0628 24.4405 19.8558 24.802 18.1872 24.802C16.5678 24.6969 14.9975 24.2219 13.6055 23.4161C12.2135 22.6102 11.0397 21.4966 10.1808 20.167C8.1417 17.7165 6.7229 14.8404 6.0372 11.7675C6.0372 11.3869 6.1866 11.0428 6.9372 11.0428H9.5634C10.2384 11.0428 10.4814 11.333 10.7442 12.0022C12.0186 15.624 14.193 18.7731 15.075 18.7731C15.4134 18.7731 15.561 18.6289 15.561 17.8138V14.0842C15.4494 12.3828 14.5134 12.2385 14.5134 11.6233C14.5254 11.461 14.6024 11.3096 14.7281 11.2013C14.8538 11.0929 15.0182 11.0361 15.1866 11.0428H19.3122C19.8756 11.0428 20.0628 11.3139 20.0628 11.9657V16.9987C20.0628 17.5427 20.3058 17.7234 20.475 17.7234C20.8134 17.7234 21.0744 17.5427 21.6936 16.9448C23.0236 15.3789 24.1102 13.6342 24.9192 11.7658C25.0019 11.5414 25.1584 11.3492 25.3648 11.2187C25.5711 11.0881 25.8161 11.0264 26.0622 11.0428H28.6884C29.475 11.0428 29.6424 11.4234 29.475 11.9657C28.5201 14.0311 27.3385 15.9917 25.9506 17.8138C25.668 18.2309 25.5546 18.4481 25.9506 18.9365C26.2116 19.3171 27.1314 20.0592 27.7506 20.7648C28.6504 21.6314 29.3977 22.6341 29.9628 23.7332C30.1878 24.4388 29.8116 24.8003 29.0628 24.8003Z" fill="white"/>
</svg>
